M48
;DRILL file {KiCad 4.0.7} date 03/08/18 21:58:26
;FORMAT={-:-/ absolute / metric / decimal}
FMAT,2
METRIC,TZ
T1C0.400
T2C0.800
T3C1.000
%
G90
G05
M71
T1
X119.507Y-82.829
X121.412Y-80.543
X121.953Y-89.024
X123.128Y-81.524
X126.178Y-83.899
X126.203Y-86.249
X126.213Y-87.681
X129.87Y-80.848
X130.103Y-77.849
X135.712Y-83.947
X135.941Y-87.249
X137.003Y-82.824
X137.278Y-78.024
X137.553Y-87.449
T2
X120.943Y-91.724
X121.793Y-64.389
X121.793Y-74.549
X124.968Y-64.389
X124.968Y-74.549
X125.603Y-96.139
X125.603Y-99.949
X125.943Y-91.724
X129.493Y-91.694
X134.493Y-64.389
X134.493Y-74.549
X134.493Y-91.694
X135.763Y-96.139
X135.763Y-99.949
X137.668Y-64.389
X137.668Y-74.549
X140.843Y-64.389
X140.843Y-74.549
X143.383Y-114.554
X143.383Y-120.904
X145.288Y-82.804
X145.288Y-85.979
X145.288Y-89.154
X145.923Y-99.949
X145.923Y-107.569
X149.098Y-64.389
X149.098Y-74.549
X150.923Y-99.949
X150.923Y-107.569
X152.273Y-64.389
X152.273Y-74.549
X153.543Y-114.554
X153.543Y-120.904
X155.448Y-82.804
X155.448Y-85.979
X155.448Y-89.154
X162.941Y-95.225
X162.941Y-105.385
T3
X120.65Y-102.87
X120.65Y-105.41
X120.65Y-107.95
X120.65Y-110.49
X120.65Y-113.03
X120.65Y-115.57
X139.7Y-102.87
X139.7Y-105.41
X139.7Y-107.95
X139.7Y-110.49
X139.7Y-113.03
X139.7Y-115.57
X157.48Y-102.87
X157.48Y-105.41
X157.48Y-107.95
X157.48Y-110.49
X157.48Y-113.03
X157.48Y-115.57
T3
X126.Y-51.92G85X128.Y-51.92
G05
X132.3Y-58.92G85X132.3Y-60.92
G05
X141.24Y-51.92G85X143.24Y-51.92
G05
X147.54Y-58.92G85X147.54Y-60.92
G05
X156.48Y-51.92G85X158.48Y-51.92
G05
X162.78Y-58.92G85X162.78Y-60.92
G05
T0
M30
